<svg xmlns="http://www.w3.org/2000/svg" xmlns:xlink="http://www.w3.org/1999/xlink" width="540" height="355">
<defs>
<g id="U" transform="translate(0 10)">
<rect x="0" y="0" width="10" height="10" style="fill:#ececec;"></rect>
<text x="0" y="0" width="10" height="10" fill="black" style="font-style:normal;font-weight:normal;font-size:7px;line-height:1.5;font-family:sans-serif;" text-anchor="middle" transform="translate(5 8)">?</text>
</g>
<rect y="10" id="W" width="10" height="10" style="fill:none;stroke:#000000;stroke-width:0.75;"></rect>
<rect id="1" width="10" height="10" style="fill:#000000;" y="10"></rect>
<marker id="HookEnd" style="overflow:visible" orient="auto-start-reverse">
<path style="fill:none;fill-rule:evenodd;stroke:#000000;stroke-width:0.5pt;stroke-opacity:1" d="m -2.5,2.5 c 1.5,0 2.5,-1 2.5,-2.5 0,-1.5 -1,-2.5 -2.5,-2.5"></path>
</marker>
</defs>
<g transform="translate(5 5)">
<rect x="0" y="0" width="530" height="345" style="fill:#dfdfeb;"></rect>
<rect x="130" y="85" width="400" height="260" style="fill:#ffffff;"></rect>
<g transform="translate(130 85)">
<use x="380" y="240" href="#U"></use><use x="360" y="240" href="#U"></use><use x="340" y="240" href="#U"></use><use x="320" y="240" href="#1"></use><use x="300" y="240" href="#U"></use><use x="280" y="240" href="#U"></use><use x="260" y="240" href="#U"></use><use x="240" y="240" href="#U"></use><use x="220" y="240" href="#U"></use><use x="200" y="240" href="#U"></use><use x="180" y="240" href="#U"></use><use x="160" y="240" href="#U"></use><use x="140" y="240" href="#U"></use><use x="120" y="240" href="#U"></use><use x="100" y="240" href="#1"></use><use x="80" y="240" href="#1"></use><use x="60" y="240" href="#1"></use><use x="40" y="240" href="#U"></use><use x="20" y="240" href="#U"></use><use x="0" y="240" href="#U"></use><use x="380" y="220" href="#U"></use><use x="360" y="220" href="#U"></use><use x="340" y="220" href="#U"></use><use x="320" y="220" href="#U"></use><use x="300" y="220" href="#U"></use><use x="280" y="220" href="#U"></use><use x="260" y="220" href="#U"></use><use x="240" y="220" href="#U"></use><use x="220" y="220" href="#U"></use><use x="200" y="220" href="#U"></use><use x="180" y="220" href="#U"></use><use x="160" y="220" href="#U"></use><use x="140" y="220" href="#U"></use><use x="120" y="220" href="#U"></use><use x="100" y="220" href="#U"></use><use x="80" y="220" href="#U"></use><use x="60" y="220" href="#U"></use><use x="40" y="220" href="#U"></use><use x="20" y="220" href="#U"></use><use x="0" y="220" href="#U"></use><use x="380" y="200" href="#U"></use><use x="360" y="200" href="#U"></use><use x="340" y="200" href="#U"></use><use x="320" y="200" href="#U"></use><use x="300" y="200" href="#U"></use><use x="280" y="200" href="#1"></use><use x="260" y="200" href="#U"></use><use x="240" y="200" href="#U"></use><use x="220" y="200" href="#U"></use><use x="200" y="200" href="#1"></use><use x="180" y="200" href="#1"></use><use x="160" y="200" href="#U"></use><use x="140" y="200" href="#U"></use><use x="120" y="200" href="#U"></use><use x="100" y="200" href="#U"></use><use x="80" y="200" href="#U"></use><use x="60" y="200" href="#U"></use><use x="40" y="200" href="#U"></use><use x="20" y="200" href="#U"></use><use x="0" y="200" href="#U"></use><use x="380" y="180" href="#U"></use><use x="360" y="180" href="#U"></use><use x="340" y="180" href="#U"></use><use x="320" y="180" href="#U"></use><use x="300" y="180" href="#U"></use><use x="280" y="180" href="#U"></use><use x="260" y="180" href="#U"></use><use x="240" y="180" href="#U"></use><use x="220" y="180" href="#U"></use><use x="200" y="180" href="#U"></use><use x="180" y="180" href="#U"></use><use x="160" y="180" href="#U"></use><use x="140" y="180" href="#U"></use><use x="120" y="180" href="#U"></use><use x="100" y="180" href="#U"></use><use x="80" y="180" href="#U"></use><use x="60" y="180" href="#U"></use><use x="40" y="180" href="#U"></use><use x="20" y="180" href="#U"></use><use x="0" y="180" href="#U"></use><use x="380" y="160" href="#U"></use><use x="360" y="160" href="#U"></use><use x="340" y="160" href="#U"></use><use x="320" y="160" href="#U"></use><use x="300" y="160" href="#U"></use><use x="280" y="160" href="#U"></use><use x="260" y="160" href="#U"></use><use x="240" y="160" href="#U"></use><use x="220" y="160" href="#U"></use><use x="200" y="160" href="#U"></use><use x="180" y="160" href="#1"></use><use x="160" y="160" href="#U"></use><use x="140" y="160" href="#U"></use><use x="120" y="160" href="#U"></use><use x="100" y="160" href="#U"></use><use x="80" y="160" href="#U"></use><use x="60" y="160" href="#U"></use><use x="40" y="160" href="#U"></use><use x="20" y="160" href="#U"></use><use x="0" y="160" href="#U"></use><use x="380" y="140" href="#U"></use><use x="360" y="140" href="#U"></use><use x="340" y="140" href="#U"></use><use x="320" y="140" href="#U"></use><use x="300" y="140" href="#U"></use><use x="280" y="140" href="#U"></use><use x="260" y="140" href="#U"></use><use x="240" y="140" href="#U"></use><use x="220" y="140" href="#U"></use><use x="200" y="140" href="#U"></use><use x="180" y="140" href="#U"></use><use x="160" y="140" href="#U"></use><use x="140" y="140" href="#U"></use><use x="120" y="140" href="#U"></use><use x="100" y="140" href="#U"></use><use x="80" y="140" href="#U"></use><use x="60" y="140" href="#U"></use><use x="40" y="140" href="#1"></use><use x="20" y="140" href="#U"></use><use x="0" y="140" href="#U"></use><use x="380" y="120" href="#U"></use><use x="360" y="120" href="#U"></use><use x="340" y="120" href="#U"></use><use x="320" y="120" href="#U"></use><use x="300" y="120" href="#U"></use><use x="280" y="120" href="#U"></use><use x="260" y="120" href="#U"></use><use x="240" y="120" href="#U"></use><use x="220" y="120" href="#U"></use><use x="200" y="120" href="#U"></use><use x="180" y="120" href="#U"></use><use x="160" y="120" href="#U"></use><use x="140" y="120" href="#U"></use><use x="120" y="120" href="#U"></use><use x="100" y="120" href="#U"></use><use x="80" y="120" href="#U"></use><use x="60" y="120" href="#U"></use><use x="40" y="120" href="#U"></use><use x="20" y="120" href="#U"></use><use x="0" y="120" href="#U"></use><use x="380" y="100" href="#U"></use><use x="360" y="100" href="#U"></use><use x="340" y="100" href="#U"></use><use x="320" y="100" href="#U"></use><use x="300" y="100" href="#U"></use><use x="280" y="100" href="#U"></use><use x="260" y="100" href="#U"></use><use x="240" y="100" href="#1"></use><use x="220" y="100" href="#U"></use><use x="200" y="100" href="#U"></use><use x="180" y="100" href="#U"></use><use x="160" y="100" href="#U"></use><use x="140" y="100" href="#U"></use><use x="120" y="100" href="#U"></use><use x="100" y="100" href="#U"></use><use x="80" y="100" href="#U"></use><use x="60" y="100" href="#U"></use><use x="40" y="100" href="#U"></use><use x="20" y="100" href="#U"></use><use x="0" y="100" href="#1"></use><use x="380" y="80" href="#U"></use><use x="360" y="80" href="#U"></use><use x="340" y="80" href="#U"></use><use x="320" y="80" href="#U"></use><use x="300" y="80" href="#U"></use><use x="280" y="80" href="#U"></use><use x="260" y="80" href="#U"></use><use x="240" y="80" href="#U"></use><use x="220" y="80" href="#U"></use><use x="200" y="80" href="#U"></use><use x="180" y="80" href="#U"></use><use x="160" y="80" href="#U"></use><use x="140" y="80" href="#U"></use><use x="120" y="80" href="#U"></use><use x="100" y="80" href="#U"></use><use x="80" y="80" href="#U"></use><use x="60" y="80" href="#U"></use><use x="40" y="80" href="#U"></use><use x="20" y="80" href="#1"></use><use x="0" y="80" href="#1"></use><use x="380" y="60" href="#U"></use><use x="360" y="60" href="#U"></use><use x="340" y="60" href="#U"></use><use x="320" y="60" href="#U"></use><use x="300" y="60" href="#U"></use><use x="280" y="60" href="#U"></use><use x="260" y="60" href="#U"></use><use x="240" y="60" href="#U"></use><use x="220" y="60" href="#U"></use><use x="200" y="60" href="#U"></use><use x="180" y="60" href="#U"></use><use x="160" y="60" href="#U"></use><use x="140" y="60" href="#U"></use><use x="120" y="60" href="#U"></use><use x="100" y="60" href="#U"></use><use x="80" y="60" href="#U"></use><use x="60" y="60" href="#U"></use><use x="40" y="60" href="#1"></use><use x="20" y="60" href="#1"></use><use x="0" y="60" href="#1"></use><use x="380" y="40" href="#U"></use><use x="360" y="40" href="#U"></use><use x="340" y="40" href="#U"></use><use x="320" y="40" href="#U"></use><use x="300" y="40" href="#U"></use><use x="280" y="40" href="#U"></use><use x="260" y="40" href="#U"></use><use x="240" y="40" href="#U"></use><use x="220" y="40" href="#U"></use><use x="200" y="40" href="#U"></use><use x="180" y="40" href="#U"></use><use x="160" y="40" href="#U"></use><use x="140" y="40" href="#U"></use><use x="120" y="40" href="#U"></use><use x="100" y="40" href="#U"></use><use x="80" y="40" href="#U"></use><use x="60" y="40" href="#U"></use><use x="40" y="40" href="#1"></use><use x="20" y="40" href="#1"></use><use x="0" y="40" href="#U"></use><use x="380" y="20" href="#U"></use><use x="360" y="20" href="#U"></use><use x="340" y="20" href="#U"></use><use x="320" y="20" href="#U"></use><use x="300" y="20" href="#U"></use><use x="280" y="20" href="#U"></use><use x="260" y="20" href="#U"></use><use x="240" y="20" href="#U"></use><use x="220" y="20" href="#U"></use><use x="200" y="20" href="#U"></use><use x="180" y="20" href="#U"></use><use x="160" y="20" href="#U"></use><use x="140" y="20" href="#U"></use><use x="120" y="20" href="#U"></use><use x="100" y="20" href="#U"></use><use x="80" y="20" href="#U"></use><use x="60" y="20" href="#U"></use><use x="40" y="20" href="#U"></use><use x="20" y="20" href="#U"></use><use x="0" y="20" href="#U"></use><use x="380" y="0" href="#U"></use><use x="360" y="0" href="#U"></use><use x="340" y="0" href="#U"></use><use x="320" y="0" href="#U"></use><use x="300" y="0" href="#U"></use><use x="280" y="0" href="#U"></use><use x="260" y="0" href="#U"></use><use x="240" y="0" href="#U"></use><use x="220" y="0" href="#U"></use><use x="200" y="0" href="#U"></use><use x="180" y="0" href="#U"></use><use x="160" y="0" href="#U"></use><use x="140" y="0" href="#U"></use><use x="120" y="0" href="#U"></use><use x="100" y="0" href="#U"></use><use x="80" y="0" href="#U"></use><use x="60" y="0" href="#U"></use><use x="40" y="0" href="#U"></use><use x="20" y="0" href="#U"></use><use x="0" y="0" href="#U"></use>
</g>
<g style="stroke:#666666;stroke-width:1;">
<rect x="0" y="0" width="530" height="345" style="fill:none"></rect>
<g transform="translate(130 0)">
<line x1="380" y1="0" x2="380" y2="345"></line>
<line x1="360" y1="0" x2="360" y2="345"></line>
<line x1="340" y1="0" x2="340" y2="345"></line>
<line x1="320" y1="0" x2="320" y2="345"></line>
<line x1="300" y1="0" x2="300" y2="345"></line>
<line x1="280" y1="0" x2="280" y2="345"></line>
<line x1="260" y1="0" x2="260" y2="345"></line>
<line x1="240" y1="0" x2="240" y2="345"></line>
<line x1="220" y1="0" x2="220" y2="345"></line>
<line x1="200" y1="0" x2="200" y2="345"></line>
<line x1="180" y1="0" x2="180" y2="345"></line>
<line x1="160" y1="0" x2="160" y2="345"></line>
<line x1="140" y1="0" x2="140" y2="345"></line>
<line x1="120" y1="0" x2="120" y2="345"></line>
<line x1="100" y1="0" x2="100" y2="345"></line>
<line x1="80" y1="0" x2="80" y2="345"></line>
<line x1="60" y1="0" x2="60" y2="345"></line>
<line x1="40" y1="0" x2="40" y2="345"></line>
<line x1="20" y1="0" x2="20" y2="345"></line>
<line x1="0" y1="0" x2="0" y2="345"></line>
</g>
<g transform="translate(0 85)">
<line x1="0" y1="240" x2="530" y2="240"></line>
<line x1="0" y1="220" x2="530" y2="220"></line>
<line x1="0" y1="200" x2="530" y2="200"></line>
<line x1="0" y1="180" x2="530" y2="180"></line>
<line x1="0" y1="160" x2="530" y2="160"></line>
<line x1="0" y1="140" x2="530" y2="140"></line>
<line x1="0" y1="120" x2="530" y2="120"></line>
<line x1="0" y1="100" x2="530" y2="100"></line>
<line x1="0" y1="80" x2="530" y2="80"></line>
<line x1="0" y1="60" x2="530" y2="60"></line>
<line x1="0" y1="40" x2="530" y2="40"></line>
<line x1="0" y1="20" x2="530" y2="20"></line>
<line x1="0" y1="0" x2="530" y2="0"></line>
</g>
</g>
<g style="font-style:normal;font-weight:normal;font-size:14px;line-height:1.5;font-family:sans-serif;" fill="black"><g transform="translate(135 0)">
<g transform="translate(380 0)"><text x="0" y="13">
2<tspan x="0" dy="17">4</tspan>
</text></g>
<g transform="translate(360 0)"><text x="0" y="13">
1<tspan x="0" dy="17">1</tspan><tspan x="0" dy="17">1</tspan><tspan x="0" dy="17">3</tspan>
</text></g>
<g transform="translate(340 0)"><text x="0" y="13">
3<tspan x="0" dy="17">1</tspan><tspan x="0" dy="17">2</tspan>
</text></g>
<g transform="translate(320 0)"><text x="0" y="13">
1<tspan x="0" dy="17">1</tspan><tspan x="0" dy="17">1</tspan><tspan x="0" dy="17">1</tspan><tspan x="0" dy="17">1</tspan>
</text></g>
<g transform="translate(300 0)"><text x="0" y="13">
2<tspan x="0" dy="17">1</tspan><tspan x="0" dy="17">1</tspan><tspan x="0" dy="17">1</tspan>
</text></g>
<g transform="translate(280 0)"><text x="0" y="13">
2<tspan x="0" dy="17">2</tspan><tspan x="0" dy="17">1</tspan><tspan x="0" dy="17">3</tspan>
</text></g>
<g transform="translate(260 0)"><text x="0" y="13">
1<tspan x="0" dy="17">1</tspan><tspan x="0" dy="17">2</tspan><tspan x="0" dy="17">2</tspan><tspan x="0" dy="17">1</tspan>
</text></g>
<g transform="translate(240 0)"><text x="0" y="13">
2<tspan x="0" dy="17">3</tspan><tspan x="0" dy="17">1</tspan><tspan x="0" dy="17">2</tspan>
</text></g>
<g transform="translate(220 0)"><text x="0" y="13">
2<tspan x="0" dy="17">1</tspan><tspan x="0" dy="17">1</tspan><tspan x="0" dy="17">1</tspan><tspan x="0" dy="17">2</tspan>
</text></g>
<g transform="translate(200 0)"><text x="0" y="13">
1<tspan x="0" dy="17">1</tspan><tspan x="0" dy="17">1</tspan><tspan x="0" dy="17">1</tspan><tspan x="0" dy="17">3</tspan>
</text></g>
<g transform="translate(180 0)"><text x="0" y="13">
1<tspan x="0" dy="17">1</tspan><tspan x="0" dy="17">1</tspan><tspan x="0" dy="17">3</tspan><tspan x="0" dy="17">1</tspan>
</text></g>
<g transform="translate(160 0)"><text x="0" y="13">
1<tspan x="0" dy="17">1</tspan><tspan x="0" dy="17">3</tspan><tspan x="0" dy="17">2</tspan>
</text></g>
<g transform="translate(140 0)"><text x="0" y="13">
1<tspan x="0" dy="17">1</tspan><tspan x="0" dy="17">1</tspan><tspan x="0" dy="17">1</tspan>
</text></g>
<g transform="translate(120 0)"><text x="0" y="13">
2<tspan x="0" dy="17">1</tspan><tspan x="0" dy="17">1</tspan>
</text></g>
<g transform="translate(100 0)"><text x="0" y="13">
1<tspan x="0" dy="17">2</tspan><tspan x="0" dy="17">1</tspan><tspan x="0" dy="17">1</tspan>
</text></g>
<g transform="translate(80 0)"><text x="0" y="13">
2<tspan x="0" dy="17">1</tspan><tspan x="0" dy="17">1</tspan><tspan x="0" dy="17">1</tspan>
</text></g>
<g transform="translate(60 0)"><text x="0" y="13">
3<tspan x="0" dy="17">1</tspan><tspan x="0" dy="17">1</tspan><tspan x="0" dy="17">1</tspan>
</text></g>
<g transform="translate(40 0)"><text x="0" y="13">
4<tspan x="0" dy="17">3</tspan><tspan x="0" dy="17">2</tspan>
</text></g>
<g transform="translate(20 0)"><text x="0" y="13">
5<tspan x="0" dy="17">2</tspan><tspan x="0" dy="17">2</tspan>
</text></g>
<g transform="translate(0 0)"><text x="0" y="13">
6<tspan x="0" dy="17">3</tspan>
</text></g>
</g>
<g transform="translate(0 100)">
<text x="2" y="240">
6<tspan dx="9">2</tspan><tspan dx="9">2</tspan><tspan dx="9">4</tspan></text><text x="2" y="220">
3<tspan dx="9">1</tspan><tspan dx="9">1</tspan><tspan dx="9">1</tspan><tspan dx="9">1</tspan><tspan dx="9">3</tspan></text><text x="2" y="200">
1<tspan dx="9">8</tspan><tspan dx="9">2</tspan></text><text x="2" y="180">
5<tspan dx="9">1</tspan><tspan dx="9">1</tspan><tspan dx="9">1</tspan><tspan dx="9">1</tspan><tspan dx="9">1</tspan></text><text x="2" y="160">
2<tspan dx="9">1</tspan><tspan dx="9">1</tspan><tspan dx="9">1</tspan><tspan dx="9">1</tspan><tspan dx="9">1</tspan></text><text x="2" y="140">
3<tspan dx="9">1</tspan><tspan dx="9">2</tspan><tspan dx="9">1</tspan><tspan dx="9">1</tspan><tspan dx="9">1</tspan></text><text x="2" y="120">
1<tspan dx="9">1</tspan><tspan dx="9">2</tspan><tspan dx="9">2</tspan><tspan dx="9">1</tspan><tspan dx="9">1</tspan></text><text x="2" y="100">
1<tspan dx="9">1</tspan><tspan dx="9">1</tspan><tspan dx="9">2</tspan><tspan dx="9">2</tspan><tspan dx="9">1</tspan></text><text x="2" y="80">
2<tspan dx="9">3</tspan><tspan dx="9">1</tspan><tspan dx="9">1</tspan><tspan dx="9">1</tspan><tspan dx="9">3</tspan></text><text x="2" y="60">
3<tspan dx="9">1</tspan><tspan dx="9">2</tspan><tspan dx="9">1</tspan><tspan dx="9">1</tspan><tspan dx="9">1</tspan><tspan dx="9">1</tspan></text><text x="2" y="40">
4<tspan dx="9">1</tspan><tspan dx="9">1</tspan><tspan dx="9">1</tspan><tspan dx="9">3</tspan></text><text x="2" y="20">
5<tspan dx="9">2</tspan><tspan dx="9">4</tspan><tspan dx="9">1</tspan></text><text x="2" y="0">
6<tspan dx="9">2</tspan><tspan dx="9">2</tspan></text>
</g>
</g>
<g transform="translate(130 85)" marker-start="url(#HookEnd)" marker-end="url(#HookEnd)" style="stroke:#000000;stroke-width:1;">
<line x1="270" y1="245" x2="390" y2="245"></line>
<line x1="210" y1="245" x2="290" y2="245"></line>
<line x1="150" y1="245" x2="230" y2="245"></line>
<line x1="10" y1="245" x2="170" y2="245"></line>
<line x1="250" y1="225" x2="390" y2="225"></line>
<line x1="210" y1="225" x2="310" y2="225"></line>
<line x1="170" y1="225" x2="270" y2="225"></line>
<line x1="130" y1="225" x2="230" y2="225"></line>
<line x1="90" y1="225" x2="190" y2="225"></line>
<line x1="10" y1="225" x2="150" y2="225"></line>
<line x1="230" y1="205" x2="390" y2="205"></line>
<line x1="50" y1="205" x2="330" y2="205"></line>
<line x1="10" y1="205" x2="150" y2="205"></line>
<line x1="290" y1="185" x2="390" y2="185"></line>
<line x1="250" y1="185" x2="350" y2="185"></line>
<line x1="210" y1="185" x2="310" y2="185"></line>
<line x1="170" y1="185" x2="270" y2="185"></line>
<line x1="130" y1="185" x2="230" y2="185"></line>
<line x1="10" y1="185" x2="190" y2="185"></line>
<line x1="230" y1="165" x2="390" y2="165"></line>
<line x1="190" y1="165" x2="350" y2="165"></line>
<line x1="150" y1="165" x2="310" y2="165"></line>
<line x1="110" y1="165" x2="270" y2="165"></line>
<line x1="70" y1="165" x2="230" y2="165"></line>
<line x1="10" y1="165" x2="190" y2="165"></line>
<line x1="270" y1="145" x2="390" y2="145"></line>
<line x1="230" y1="145" x2="350" y2="145"></line>
<line x1="190" y1="145" x2="310" y2="145"></line>
<line x1="130" y1="145" x2="270" y2="145"></line>
<line x1="90" y1="145" x2="210" y2="145"></line>
<line x1="10" y1="145" x2="170" y2="145"></line>
<line x1="250" y1="125" x2="390" y2="125"></line>
<line x1="210" y1="125" x2="350" y2="125"></line>
<line x1="150" y1="125" x2="310" y2="125"></line>
<line x1="90" y1="125" x2="250" y2="125"></line>
<line x1="50" y1="125" x2="190" y2="125"></line>
<line x1="10" y1="125" x2="150" y2="125"></line>
<line x1="250" y1="105" x2="390" y2="105"></line>
<line x1="190" y1="105" x2="350" y2="105"></line>
<line x1="130" y1="105" x2="290" y2="105"></line>
<line x1="90" y1="105" x2="230" y2="105"></line>
<line x1="50" y1="105" x2="190" y2="105"></line>
<line x1="10" y1="105" x2="150" y2="105"></line>
<line x1="270" y1="85" x2="390" y2="85"></line>
<line x1="230" y1="85" x2="310" y2="85"></line>
<line x1="190" y1="85" x2="270" y2="85"></line>
<line x1="150" y1="85" x2="230" y2="85"></line>
<line x1="70" y1="85" x2="190" y2="85"></line>
<line x1="10" y1="85" x2="110" y2="85"></line>
<line x1="310" y1="65" x2="390" y2="65"></line>
<line x1="270" y1="65" x2="350" y2="65"></line>
<line x1="230" y1="65" x2="310" y2="65"></line>
<line x1="190" y1="65" x2="270" y2="65"></line>
<line x1="130" y1="65" x2="230" y2="65"></line>
<line x1="90" y1="65" x2="170" y2="65"></line>
<line x1="10" y1="65" x2="130" y2="65"></line>
<line x1="230" y1="45" x2="390" y2="45"></line>
<line x1="190" y1="45" x2="310" y2="45"></line>
<line x1="150" y1="45" x2="270" y2="45"></line>
<line x1="110" y1="45" x2="230" y2="45"></line>
<line x1="10" y1="45" x2="190" y2="45"></line>
<line x1="290" y1="25" x2="390" y2="25"></line>
<line x1="190" y1="25" x2="350" y2="25"></line>
<line x1="130" y1="25" x2="250" y2="25"></line>
<line x1="10" y1="25" x2="190" y2="25"></line>
<line x1="210" y1="5" x2="390" y2="5"></line>
<line x1="150" y1="5" x2="330" y2="5"></line>
<line x1="10" y1="5" x2="270" y2="5"></line>
<line x1="395" y1="65" x2="395" y2="245"></line>
<line x1="395" y1="5" x2="395" y2="145"></line>
<line x1="375" y1="125" x2="375" y2="245"></line>
<line x1="375" y1="85" x2="375" y2="165"></line>
<line x1="375" y1="45" x2="375" y2="125"></line>
<line x1="375" y1="5" x2="375" y2="85"></line>
<line x1="355" y1="125" x2="355" y2="245"></line>
<line x1="355" y1="85" x2="355" y2="185"></line>
<line x1="355" y1="5" x2="355" y2="145"></line>
<line x1="335" y1="165" x2="335" y2="245"></line>
<line x1="335" y1="125" x2="335" y2="205"></line>
<line x1="335" y1="85" x2="335" y2="165"></line>
<line x1="335" y1="45" x2="335" y2="125"></line>
<line x1="335" y1="5" x2="335" y2="85"></line>
<line x1="315" y1="145" x2="315" y2="245"></line>
<line x1="315" y1="105" x2="315" y2="205"></line>
<line x1="315" y1="65" x2="315" y2="165"></line>
<line x1="315" y1="5" x2="315" y2="125"></line>
<line x1="295" y1="165" x2="295" y2="245"></line>
<line x1="295" y1="125" x2="295" y2="165"></line>
<line x1="295" y1="65" x2="295" y2="125"></line>
<line x1="295" y1="5" x2="295" y2="65"></line>
<line x1="275" y1="205" x2="275" y2="245"></line>
<line x1="275" y1="145" x2="275" y2="205"></line>
<line x1="275" y1="85" x2="275" y2="145"></line>
<line x1="275" y1="45" x2="275" y2="85"></line>
<line x1="275" y1="5" x2="275" y2="45"></line>
<line x1="255" y1="185" x2="255" y2="245"></line>
<line x1="255" y1="145" x2="255" y2="185"></line>
<line x1="255" y1="65" x2="255" y2="145"></line>
<line x1="255" y1="5" x2="255" y2="65"></line>
<line x1="235" y1="185" x2="235" y2="245"></line>
<line x1="235" y1="145" x2="235" y2="185"></line>
<line x1="235" y1="105" x2="235" y2="145"></line>
<line x1="235" y1="65" x2="235" y2="105"></line>
<line x1="235" y1="5" x2="235" y2="65"></line>
<line x1="215" y1="165" x2="215" y2="245"></line>
<line x1="215" y1="125" x2="215" y2="165"></line>
<line x1="215" y1="85" x2="215" y2="125"></line>
<line x1="215" y1="45" x2="215" y2="85"></line>
<line x1="215" y1="5" x2="215" y2="45"></line>
<line x1="195" y1="205" x2="195" y2="245"></line>
<line x1="195" y1="125" x2="195" y2="205"></line>
<line x1="195" y1="85" x2="195" y2="125"></line>
<line x1="195" y1="45" x2="195" y2="85"></line>
<line x1="195" y1="5" x2="195" y2="45"></line>
<line x1="175" y1="165" x2="175" y2="245"></line>
<line x1="175" y1="85" x2="175" y2="185"></line>
<line x1="175" y1="45" x2="175" y2="105"></line>
<line x1="175" y1="5" x2="175" y2="65"></line>
<line x1="155" y1="125" x2="155" y2="245"></line>
<line x1="155" y1="85" x2="155" y2="205"></line>
<line x1="155" y1="45" x2="155" y2="165"></line>
<line x1="155" y1="5" x2="155" y2="125"></line>
<line x1="135" y1="105" x2="135" y2="245"></line>
<line x1="135" y1="65" x2="135" y2="205"></line>
<line x1="135" y1="5" x2="135" y2="165"></line>
<line x1="115" y1="145" x2="115" y2="245"></line>
<line x1="115" y1="105" x2="115" y2="205"></line>
<line x1="115" y1="45" x2="115" y2="165"></line>
<line x1="115" y1="5" x2="115" y2="105"></line>
<line x1="95" y1="145" x2="95" y2="245"></line>
<line x1="95" y1="105" x2="95" y2="205"></line>
<line x1="95" y1="65" x2="95" y2="165"></line>
<line x1="95" y1="5" x2="95" y2="125"></line>
<line x1="75" y1="165" x2="75" y2="245"></line>
<line x1="75" y1="125" x2="75" y2="205"></line>
<line x1="75" y1="85" x2="75" y2="165"></line>
<line x1="75" y1="5" x2="75" y2="125"></line>
<line x1="55" y1="185" x2="55" y2="245"></line>
<line x1="55" y1="105" x2="55" y2="185"></line>
<line x1="55" y1="5" x2="55" y2="105"></line>
<line x1="35" y1="185" x2="35" y2="245"></line>
<line x1="35" y1="125" x2="35" y2="185"></line>
<line x1="35" y1="5" x2="35" y2="125"></line>
<line x1="15" y1="145" x2="15" y2="245"></line>
<line x1="15" y1="5" x2="15" y2="165"></line>
</g>
</g>
</svg>
